<?xml version="1.0" encoding="UTF-8"?>
<svg xmlns="http://www.w3.org/2000/svg" xmlns:xlink="http://www.w3.org/1999/xlink" id="license-DE" viewBox="0 0 150.86 64.2">
  <title/>
  <path class="a" d="M133.13 50.8v4.64c0 1.11.74 1.41 1.85 1.41h5.17c0 1.1-.06.85-.06 1.14a6.41 6.41 0 0 0 6.27 6.42 6.48 6.48 0 0 0 6.27-6.5c0-.28 0 0-.06-1.06h30.05c0 1.1-.06.85-.06 1.14a6.41 6.41 0 0 0 6.27 6.42 6.48 6.48 0 0 0 6.27-6.5c0-.28 0 0-.06-1.06h4.54c1.11 0 2.28-.3 2.28-1.41V50.8zm13.23 11a3.61 3.61 0 1 1 3.64-3.61 3.61 3.61 0 0 1-3.64 3.6zm42.47 0a3.61 3.61 0 1 1 3.61-3.61 3.61 3.61 0 0 1-3.61 3.6zM201.86 48.6v-23c0-1.11-1.17-2.83-2.28-2.83H135c-1.11 0-1.85 1.72-1.85 2.83v23zM124.6 30.25L123 15.64a1.3 1.3 0 0 0-1.38-1.13H6.4a1.22 1.22 0 0 0-1.25.8L0 31.74c0 .15.08.26.08.42v22.77c0 .53.13.82.66.82h9.14v.51a7.91 7.91 0 1 0 15.82 0 4.8 4.8 0 0 1 0-.49H79v.51a7.91 7.91 0 1 0 15.82 0 4.83 4.83 0 0 1 0-.49h.8v.51a7.91 7.91 0 1 0 15.82 0 4.86 4.86 0 0 1 0-.49h11.84a1.34 1.34 0 0 0 1.4-1.32zM4 34.86c-.78 0-1.32-1.14-1.08-1.82L8 18.71a1.31 1.31 0 0 1 1.08-.9h7.21c.63 0 1.41.38 1.41 1v14.12c0 .58-.78 1.93-1.41 1.93zM17.77 61a4.66 4.66 0 1 1 4.66-4.66A4.66 4.66 0 0 1 17.77 61zm13.65-28.88a.53.53 0 0 1-.53.53h-8.83a.53.53 0 0 1-.53-.53V18.34a.53.53 0 0 1 .53-.53h8.83a.53.53 0 0 1 .53.53zm12.64 0a.53.53 0 0 1-.53.53h-8.82a.53.53 0 0 1-.53-.53V18.34a.53.53 0 0 1 .53-.53h8.83a.53.53 0 0 1 .53.53zm12.64 0a.53.53 0 0 1-.53.53h-8.82a.53.53 0 0 1-.53-.53V18.34a.53.53 0 0 1 .53-.53h8.83a.53.53 0 0 1 .53.53zm12.64 0a.53.53 0 0 1-.53.53H60a.53.53 0 0 1-.53-.53V18.34a.53.53 0 0 1 .53-.53h8.83a.53.53 0 0 1 .53.53zm12.64 0a.53.53 0 0 1-.53.53h-8.81a.53.53 0 0 1-.53-.53V18.34a.53.53 0 0 1 .53-.53h8.83a.53.53 0 0 1 .53.53zM86.9 61a4.66 4.66 0 0 1-4.66-4.66v-.43a4.67 4.67 0 0 1 .92-2.37 4.7 4.7 0 0 1 .55-.61l.08-.07a4.67 4.67 0 0 1 .57-.44l.21-.12a4.58 4.58 0 0 1 .54-.27c.13-.05.27-.09.41-.13a4.45 4.45 0 0 1 .43-.13 4.69 4.69 0 0 1 .82-.08H87a4.69 4.69 0 0 1 .8.08 4.53 4.53 0 0 1 .44.13c.13 0 .27.07.39.12a4.55 4.55 0 0 1 .55.28l.2.11a4.64 4.64 0 0 1 .58.44l.08.06a4.69 4.69 0 0 1 .55.61 4.67 4.67 0 0 1 .92 2.37v.43A4.66 4.66 0 0 1 86.9 61zm7.75-28.86a.53.53 0 0 1-.53.53h-8.83a.53.53 0 0 1-.53-.53v-13.8a.53.53 0 0 1 .53-.53h8.83a.53.53 0 0 1 .53.53zm12.64 0a.53.53 0 0 1-.53.53h-8.83a.53.53 0 0 1-.53-.53v-13.8a.53.53 0 0 1 .53-.53h8.83a.53.53 0 0 1 .53.53zM103.48 61a4.66 4.66 0 0 1-4.66-4.66v-.43a4.67 4.67 0 0 1 .92-2.37 4.7 4.7 0 0 1 .55-.61l.08-.07a4.66 4.66 0 0 1 .57-.44l.21-.12a4.58 4.58 0 0 1 .54-.27c.13-.05.27-.09.41-.13a4.45 4.45 0 0 1 .43-.13 4.69 4.69 0 0 1 .82-.08h.19a4.69 4.69 0 0 1 .8.08 4.52 4.52 0 0 1 .44.13c.13 0 .27.07.39.12a4.56 4.56 0 0 1 .55.28l.2.11a4.64 4.64 0 0 1 .58.44l.08.06a4.69 4.69 0 0 1 .55.61 4.67 4.67 0 0 1 .92 2.37v.43a4.66 4.66 0 0 1-4.57 4.68zm16.46-28.86a.53.53 0 0 1-.53.53h-8.83a.53.53 0 0 1-.53-.53v-13.8a.53.53 0 0 1 .53-.53h8.83a.53.53 0 0 1 .53.53z"/>
</svg>
