<?xml version="1.0" encoding="UTF-8"?>
<svg xmlns="http://www.w3.org/2000/svg" xmlns:xlink="http://www.w3.org/1999/xlink" id="license-C1" viewBox="0 0 150.86 64.2">
  <title/>
  <path class="a" d="M99.57 11.2H25.92a1.71 1.71 0 0 0-1.72 1.72v23.53h-2.1V22.61c0-.78-.63-1.94-1.41-1.94H4.41a1.68 1.68 0 0 0-1.35 1.23L0 35.6v18.52c0 1 1.07 1.26 2 1.26h2.71v.43a8.37 8.37 0 1 0 16.74 0v-.42h55.41v.43a8.37 8.37 0 1 0 16.74 0v-.42h6c1 0 1.42-.31 1.42-1.26V12.82c-.02-.95-.5-1.62-1.45-1.62zM13.06 60.54a4.69 4.69 0 1 1 4.69-4.69 4.69 4.69 0 0 1-4.69 4.69zm4.82-25.14H4.11a.77.77 0 0 1-.79-.91l1.81-10a.81.81 0 0 1 .79-.67h12zm67.33 25.14a4.69 4.69 0 0 1-4.69-4.69v-.4a4.71 4.71 0 0 1 1.47-3l.07-.06a4.67 4.67 0 0 1 .59-.46l.2-.11a4.58 4.58 0 0 1 .56-.29c.13-.05.27-.09.41-.13a4.5 4.5 0 0 1 .44-.13 4.71 4.71 0 0 1 .88-.09h.06a4.7 4.7 0 0 1 .89.09c.15 0 .29.08.43.13s.28.07.41.13a4.62 4.62 0 0 1 .55.29l.2.11a4.66 4.66 0 0 1 .6.46l.07.05a4.71 4.71 0 0 1 1.47 3v.39a4.69 4.69 0 0 1-4.61 4.71z"/>
</svg>
