<?xml version="1.0" encoding="UTF-8"?>
<svg xmlns="http://www.w3.org/2000/svg" xmlns:xlink="http://www.w3.org/1999/xlink" id="license-C1E" viewBox="0 0 150.86 64.2">
  <title/>
  <path class="a" d="M110.12 50.61v4.69A1.61 1.61 0 0 0 112 57h5.11c0 1.06-.06.71-.06 1a6.21 6.21 0 1 0 12.41 0c0-.28 0 .11-.06-.95h29.74c0 1.06-.06.71-.06 1a6.21 6.21 0 1 0 12.41 0c0-.28 0 .11-.06-.95h4.49c1.1 0 2-.56 2-1.66v-4.83zm13.09 11a3.57 3.57 0 1 1 3.57-3.61 3.57 3.57 0 0 1-3.57 3.59zm42 0A3.57 3.57 0 1 1 168.8 58a3.57 3.57 0 0 1-3.56 3.59zM177.89 48.49V25.77c0-1.1-.92-2.69-2-2.69H112c-1.1 0-1.83 1.59-1.83 2.69v22.72zM100 11.24H25.86c-1 0-1.51.24-1.51 1.2v24.22h-2.11V22.2a1.64 1.64 0 0 0-1.65-1.43H4.21a1.29 1.29 0 0 0-1.25 1L0 35.28v18.64a1.85 1.85 0 0 0 1.82 1.79h2.7v.17a8.34 8.34 0 0 0 8.43 8.31 8.29 8.29 0 0 0 8.43-8.26.78.78 0 0 0 0-.23h55.76v.17a8.43 8.43 0 0 0 16.86.07.79.79 0 0 0 0-.23h6a1.72 1.72 0 0 0 1.66-1.79V12.35c-.01-.96-.66-1.11-1.66-1.11zM12.92 60.38a4.72 4.72 0 1 1 4.72-4.72 4.72 4.72 0 0 1-4.72 4.72zM18 35.6H3.91c-.5 0-.88-.68-.79-1.17l1.83-9.93a.71.71 0 0 1 .79-.5H18zm67.54 24.78a4.72 4.72 0 0 1-4.72-4.72v-.4a4.74 4.74 0 0 1 1.48-3.05l.07-.06a4.71 4.71 0 0 1 .6-.46l.2-.11a4.61 4.61 0 0 1 .56-.29c.13-.05.27-.09.41-.13a4.53 4.53 0 0 1 .44-.13 4.74 4.74 0 0 1 .89-.09h.06a4.73 4.73 0 0 1 .9.09c.15 0 .29.08.43.13s.28.07.42.13a4.65 4.65 0 0 1 .56.29l.2.11a4.69 4.69 0 0 1 .6.46l.07.05a4.74 4.74 0 0 1 1.48 3.06v.4a4.72 4.72 0 0 1-4.65 4.72z"/>
</svg>
