<?xml version="1.0" encoding="UTF-8"?>
<svg xmlns="http://www.w3.org/2000/svg" xmlns:xlink="http://www.w3.org/1999/xlink" id="license-T" viewBox="0 0 150.86 64.2">
  <title/>
  <path class="a" d="M49.45 36.31A13.95 13.95 0 1 0 63.4 50.25a13.95 13.95 0 0 0-13.95-13.94zm0 23.75a9.8 9.8 0 1 1 9.8-9.8 9.82 9.82 0 0 1-9.8 9.8z"/>
  <circle class="a" cx="49.45" cy="50.25" r="8.37"/>
  <path class="a" d="M56.62 30.58V14.14H32.06l-5 19.67H0v18.71h2.6a9.27 9.27 0 0 1 17 0h14.64a15.37 15.37 0 0 1 24.69-14.37l2.61-2.56zm-3.84-1.08l-11 .21-3 4.11h-7.62l4-16.31h17.62z"/>
  <path class="a" d="M11.12 48.53A7.84 7.84 0 1 0 19 56.36a7.84 7.84 0 0 0-7.88-7.83zm0 11.53a3.69 3.69 0 1 1 3.69-3.69 3.69 3.69 0 0 1-3.69 3.68z"/>
</svg>
