<?xml version="1.0" encoding="UTF-8"?>
<svg xmlns="http://www.w3.org/2000/svg" xmlns:xlink="http://www.w3.org/1999/xlink" id="license-BE" viewBox="0 0 150.86 64.2">
  <title/>
  <path class="a" d="M93.34 40.44h-7L76.22 29.12a5.45 5.45 0 0 0-4.07-1.78H42.91a5.45 5.45 0 0 0-3.91 1.6l-11.21 11.5H4.13C1.9 40.44.05 43.27.05 45.5v7.1c0 2.23 1.84 2.83 4.08 2.83h4.44v.74a8 8 0 0 0 7.73 8c4.26.03 7.7-3.9 7.7-8.17v-.59h48.4v.74a8 8 0 0 0 7.73 8c4.26 0 7.73-3.93 7.73-8.19v-.59h5.49c2.23 0 4.08-.6 4.08-2.83V45.5c-.01-2.23-1.86-5.06-4.09-5.06zm-77.05 21a4.69 4.69 0 0 1-4.69-4.69v-.13a4.69 4.69 0 0 1 1.4-3.2h.06a4.69 4.69 0 0 1 .62-.51l.22-.12a4.64 4.64 0 0 1 .56-.3 4.73 4.73 0 0 1 .46-.14c.14 0 .27-.1.41-.13a4.69 4.69 0 0 1 1.87 0c.14 0 .27.08.41.13a4.73 4.73 0 0 1 .46.14 4.64 4.64 0 0 1 .56.3l.22.12a4.69 4.69 0 0 1 .62.51h.06A4.69 4.69 0 0 1 21 56.65v.13a4.69 4.69 0 0 1-4.71 4.68zm39.93-21H32.51l9.54-9.15c.38-.38.9-.21 1.44-.21h12.74zm5.62 0v-9.36h11.27c.61 0 1.19-.11 1.58.36l7.67 9zm18.28 21a4.69 4.69 0 0 1-4.69-4.69v-.13a4.69 4.69 0 0 1 1.41-3.23h.06a4.69 4.69 0 0 1 .62-.51l.22-.12a4.64 4.64 0 0 1 .56-.3 4.73 4.73 0 0 1 .46-.14c.14 0 .27-.1.41-.13a4.69 4.69 0 0 1 1.87 0c.14 0 .27.08.41.13a4.73 4.73 0 0 1 .46.14 4.64 4.64 0 0 1 .56.3l.22.12a4.69 4.69 0 0 1 .62.51h.06a4.69 4.69 0 0 1 1.41 3.23v.13a4.69 4.69 0 0 1-4.65 4.71zM106.78 47.93v6.68c0 1.2.52.81 1.71.81h5.56A13.5 13.5 0 0 1 114 57a7.05 7.05 0 0 0 6.75 7.09c3.72 0 6.75-3.53 6.75-7.26a5.7 5.7 0 0 1-.07-1.41h32.34a13.56 13.56 0 0 1-.07 1.58 7.05 7.05 0 0 0 6.75 7.09c3.72 0 6.75-3.53 6.75-7.26a5.7 5.7 0 0 1-.07-1.41H178c1.2 0 1.8.38 1.8-.81v-6.68zm14 13.51a3.88 3.88 0 1 1 3.88-3.88 3.88 3.88 0 0 1-3.92 3.89zm45.71 0a3.88 3.88 0 1 1 3.88-3.88 3.88 3.88 0 0 1-3.92 3.89zM179.81 46.06V22.48c0-1.2-.61-2.64-1.8-2.64H108.5c-1.2 0-1.71 1.44-1.71 2.64v23.58z"/>
</svg>
