<?xml version="1.0" encoding="UTF-8"?>
<svg xmlns="http://www.w3.org/2000/svg" xmlns:xlink="http://www.w3.org/1999/xlink" id="license-A" viewBox="0 0 150.86 64.2">
  <title/>
  <path class="a" d="M67 40.65l-1.43.63-.42-1L58.61 44a8 8 0 0 0-3.61-.71h-.35l-2.31-2.67 5-3.63 5 4.15 1.79-.8-1.39-2.12.37-.34a.7.7 0 0 0 .18-.77.63.63 0 0 0-.64-.37h-.7v-1.06l2.19-.84a.76.76 0 0 0 .44-.46l.15-.43a.77.77 0 0 0-.09-.69l-.15-.22a.7.7 0 0 0-.44-.29l-.82-.14.61-.86v-1.01l-12.99 1.57v1.79l.56.22V35l-9.91 3.41h-1.7a5.64 5.64 0 0 0-5.42-5.18s-8.65-1.53-12.64 2.9l-1.52-.72.9-1.28-2-1.49-1.75.26-1.88 3.31 16.18 7 4.66 7.57v3.73h3.54v-2.22l4.63.71.07.33L41 55.67H35.31v-4.55l-4.06-7-17.76-7.8-.07-2.5a1.85 1.85 0 0 1 .58-1.44l.78-.7 1.86-1.08-.17-2.94-1.3.31a1.88 1.88 0 0 0-1.24 1l-.24.47a2.13 2.13 0 0 1-.48.63l-6.16 5.46a3.9 3.9 0 0 0-1.36 2.81v.31a3.15 3.15 0 0 0 1.37 2.46h.11l.68-.11v.49l5.06 3-.32.64a9.75 9.75 0 0 0-10.68 2.74l.52.62a9.29 9.29 0 1 0 16.15 6.25 9.23 9.23 0 0 0-.58-3.13l.56-.14A9.85 9.85 0 0 0 14 45.83l.25-.49.73.43a3.44 3.44 0 0 1 .62.48l3 2.84a5.24 5.24 0 0 1 1.4 2.27l.73 2.42a1.78 1.78 0 0 1 0 1.05l-1.84 5.1h25.55l-2.26-2.79 2.56-1.4a10.44 10.44 0 1 0 17.61-9.4l4.88-2.6-.6-.89.38-.27zm-49.6-4.59a.52.52 0 1 1 .52-.52.52.52 0 0 1-.52.52zm-1.23 18.68a6.9 6.9 0 1 1-5.06-6.62l-1 2a4.67 4.67 0 1 0 1.5.53l1-2a6.87 6.87 0 0 1 3.56 6.09zM26 46.95c-.12.17-.31.07-.52.07H24c-.19 0-.36.12-.48 0l-3.13-3.62c-.81-1-1.08-1.67.7-.95l2.08.78a.66.66 0 0 1 .26.19L26 46.27a.5.5 0 0 1 0 .68zm19.18 3.3H44.1l.18-1.77 1.17.8zm.87-1.87L43.81 46l-4.18 1.55-.43-1.22 6.32-2.81a2.52 2.52 0 0 1 1-.27h2.45l2.39-1.81 1.74 2.07a10.41 10.41 0 0 0-7.05 4.86zm5.66.44l-2.48 1.57a6.7 6.7 0 0 1 2.21-2.29zm10 5.28a6.68 6.68 0 0 1-13.34-.3l.35-.18L51 54a4 4 0 0 0 4.15 3.8A4.08 4.08 0 0 0 59 53.69a4 4 0 0 0-3.19-3.9l2.93-1.56a6.67 6.67 0 0 1 2.93 5.87z"/>
</svg>
