<svg height='300px' width='300px'  fill="#000000" xmlns="http://www.w3.org/2000/svg" xmlns:xlink="http://www.w3.org/1999/xlink" xmlns:sketch="http://www.bohemiancoding.com/sketch/ns" viewBox="0 0 30 30" version="1.1" x="0px" y="0px"><title>weather_089-night_thunderstorm-cloud-lightning-rain-shower-moon-forecast</title><desc>Created with Sketch.</desc><g stroke="none" stroke-width="1" fill="none" fill-rule="evenodd" sketch:type="MSPage"><g sketch:type="MSArtboardGroup" transform="translate(-495.000000, -360.000000)" fill="#000000"><g sketch:type="MSLayerGroup" transform="translate(498.000000, 360.000000)"><path d="M24.6313897,9.24709057 C24.7592117,8.8697583 24.415943,8.50178248 24.0306505,8.6031125 C23.5354129,8.73335752 23.0223347,8.79998779 22.5,8.79998779 C19.1862915,8.79998779 16.5,6.11369629 16.5,2.79998779 C16.5,2.13660523 16.6074924,1.48849796 16.8157427,0.873740078 C16.9435647,0.496407809 16.600296,0.128431983 16.2150035,0.229762006 C13.1643309,1.03207376 11,3.80075379 11,7 C11.3833664,7.26743 11.7394768,7.55183797 12.0625996,7.86989262 C12.0213529,7.58588838 12,7.29543781 12,7 C12,4.25784989 13.8448486,2.20050049 15.6216518,1.49424946 C15.5410358,1.92135341 15.5,2.35799009 15.5,2.79998779 C15.5,6.66598104 18.6340068,9.79998779 22.5,9.79998779 C23.1083642,9.79998779 23.0499992,9.77999878 23.3341924,9.75103334 C22.4550979,11.4549738 20.8000917,12.6515566 18.881684,12.9353001 C19.1567248,13.1908313 19.3906006,13.4900676 19.5722619,13.8219598 C21.9144213,13.2831381 23.8466129,11.5637623 24.6313897,9.24709057 Z" sketch:type="MSShapeGroup"></path><path d="M16.5,20 C18.9852814,20 21,17.9852814 21,15.5 C21,13.0147186 18.9852814,11 16.5,11 C15.6937625,11 15.2087402,11.1813354 14.9058601,11.2963417 C14.3269916,7.71205098 11.2165905,5 7.5,5 C3.35786438,5 0,8.35786438 0,12.5 C0,16.6421356 3.35786438,20 7.5,20 L16.5,20 Z" sketch:type="MSShapeGroup"></path><path d="M7.80295533,22.1367981 L7.00719776,25.7983917 C6.98941292,25.9061231 7.05268239,26.0077116 7.13756244,26.0077116 L8.82977295,26.0075073 L8.07134418,29.7804637 C8.0315371,29.9698773 8.2270186,30.0853618 8.31090795,29.9219907 L10.9773911,24.7291222 C11.0364584,24.6140909 10.9729052,24.4600327 10.8664044,24.4600814 L8.68216176,24.4600814 L9.91910695,22.2504533 C9.96343064,22.1353862 9.89896898,22 9.7998582,22 L7.93332002,22 C7.87045264,22 7.81612788,22.0570057 7.80295533,22.1367981 Z" sketch:type="MSShapeGroup"></path><path d="M13.2745137,24.0227708 C13.5506561,24.0227708 13.7745137,23.7989131 13.7745137,23.5227708 L13.7745137,21.5227708 C13.7745137,21.2466284 13.5506561,21.0227708 13.2745137,21.0227708 C12.9983713,21.0227708 12.7745137,21.2466284 12.7745137,21.5227708 L12.7745137,23.5227708 C12.7745137,23.7989131 12.9983713,24.0227708 13.2745137,24.0227708 Z M13.2745137,28.0227708 C13.5506561,28.0227708 13.7745137,27.7989131 13.7745137,27.5227708 L13.7745137,25.5227708 C13.7745137,25.2466284 13.5506561,25.0227708 13.2745137,25.0227708 C12.9983713,25.0227708 12.7745137,25.2466284 12.7745137,25.5227708 L12.7745137,27.5227708 C12.7745137,27.7989131 12.9983713,28.0227708 13.2745137,28.0227708 Z" sketch:type="MSShapeGroup" transform="translate(13.274514, 24.522771) rotate(-347.000000) translate(-13.274514, -24.522771) "></path><path d="M15.8246116,25.9715109 C16.100754,25.9715109 16.3246116,25.7476533 16.3246116,25.4715109 L16.3246116,23.4715109 C16.3246116,23.1953685 16.100754,22.9715109 15.8246116,22.9715109 C15.5484692,22.9715109 15.3246116,23.1953685 15.3246116,23.4715109 L15.3246116,25.4715109 C15.3246116,25.7476533 15.5484692,25.9715109 15.8246116,25.9715109 Z M15.8246116,29.9715109 C16.100754,29.9715109 16.3246116,29.7476533 16.3246116,29.4715109 L16.3246116,27.4715109 C16.3246116,27.1953685 16.100754,26.9715109 15.8246116,26.9715109 C15.5484692,26.9715109 15.3246116,27.1953685 15.3246116,27.4715109 L15.3246116,29.4715109 C15.3246116,29.7476533 15.5484692,29.9715109 15.8246116,29.9715109 Z" sketch:type="MSShapeGroup" transform="translate(15.824612, 26.471511) rotate(-347.000000) translate(-15.824612, -26.471511) "></path></g></g></g></svg>
