<?xml version="1.0" encoding="UTF-8" standalone="no"?>
<svg
   xmlns:dc="http://purl.org/dc/elements/1.1/"
   xmlns:cc="http://creativecommons.org/ns#"
   xmlns:rdf="http://www.w3.org/1999/02/22-rdf-syntax-ns#"
   xmlns:svg="http://www.w3.org/2000/svg"
   xmlns="http://www.w3.org/2000/svg"
   xmlns:sodipodi="http://sodipodi.sourceforge.net/DTD/sodipodi-0.dtd"
   xmlns:inkscape="http://www.inkscape.org/namespaces/inkscape"
   height="300px"
   width="300px"
   fill="#000000"
   version="1.1"
   x="0px"
   y="0px"
   viewBox="0 0 100 100"
   enable-background="new 0 0 100 100"
   xml:space="preserve"
   id="svg4"
   sodipodi:docname="logo.svg"
   inkscape:version="1.0.2-2 (e86c870879, 2021-01-15)"><metadata
     id="metadata10"><rdf:RDF><cc:Work
         rdf:about=""><dc:format>image/svg+xml</dc:format><dc:type
           rdf:resource="http://purl.org/dc/dcmitype/StillImage" /></cc:Work></rdf:RDF></metadata><defs
     id="defs8" /><sodipodi:namedview
     pagecolor="#ffffff"
     bordercolor="#666666"
     borderopacity="1"
     objecttolerance="10"
     gridtolerance="10"
     guidetolerance="10"
     inkscape:pageopacity="0"
     inkscape:pageshadow="2"
     inkscape:window-width="1920"
     inkscape:window-height="1057"
     id="namedview6"
     showgrid="false"
     inkscape:zoom="2.7437401"
     inkscape:cx="253.52343"
     inkscape:cy="140.6554"
     inkscape:window-x="-8"
     inkscape:window-y="-8"
     inkscape:window-maximized="1"
     inkscape:current-layer="layer2" /><g
     inkscape:groupmode="layer"
     id="layer3"
     inkscape:label="all"
     style="display:inline"><path
       d="m 11.9,80 c 0,-1.4 1.1,-2.5 2.5,-2.5 h 34.1 c 1.4,0 2.5,1.1 2.5,2.5 0,1.4 -1.1,2.5 -2.5,2.5 H 14.4 c -1.3,0 -2.5,-1.1 -2.5,-2.5 z M 1.4,29.3 v 53 c 0,5.9 4.7,10.6 10.6,10.6 h 47 c 5.9,0 10.6,-4.7 10.6,-10.6 v -5.7 c -1.6,0.7 -3.3,1.3 -5,1.7 v 4 c 0,3.1 -2.5,5.6 -5.6,5.6 H 12 C 8.9,87.9 6.4,85.4 6.4,82.3 V 30.8 h 8.9 c 5.8,0 10.6,-4.8 10.6,-10.6 V 12.1 H 59 c 3.1,0 5.6,2.5 5.6,5.6 v 5.7 c 1.7,0.4 3.4,1 5,1.7 V 17.7 C 69.6,11.8 64.9,7.1 59,7.1 H 24.3 C 23.7,7.1 23.1,7.2 22.5,7.4 21.9,7.6 21.4,8 21,8.4 L 2.8,25.9 c -0.5,0.4 -0.8,1 -1.1,1.6 -0.3,0.6 -0.3,1.2 -0.3,1.8 z m 35.4,3.2 c 0.5,-0.5 1,-1.1 1.5,-1.6 1.3,-1.3 2.7,-2.4 4.1,-3.4 h -9.1 c -1.4,0 -2.5,1.1 -2.5,2.5 0,1.4 1.1,2.5 2.5,2.5 z m -22.2,40 h 25.5 c -0.7,-0.5 -1.3,-1.1 -1.9,-1.7 -1,-1 -2,-2.1 -2.8,-3.3 H 14.6 c -1.4,0 -2.5,1.1 -2.5,2.5 0,1.4 1.2,2.5 2.5,2.5 z M 12.1,60 c 0,1.4 1.1,2.5 2.5,2.5 h 17.9 c -0.7,-1.6 -1.3,-3.3 -1.7,-5 H 14.6 c -1.3,0 -2.5,1.1 -2.5,2.5 z m 2.5,-7.5 H 30 c 0,-0.6 -0.1,-1.1 -0.1,-1.7 0,-1.1 0.1,-2.2 0.2,-3.3 H 14.6 c -1.4,0 -2.5,1.1 -2.5,2.5 0,1.4 1.2,2.5 2.5,2.5 z M 12.1,40 c 0,1.4 1.1,2.5 2.5,2.5 h 16.6 c 0.5,-1.7 1.2,-3.4 2.1,-5 H 14.6 c -1.3,0 -2.5,1.1 -2.5,2.5 z m 46.1,34 c -5.9,0 -11.9,-2.3 -16.4,-6.8 -9.1,-9.1 -9.1,-23.7 0,-32.8 4.5,-4.5 10.5,-6.8 16.4,-6.8 5.9,0 11.9,2.3 16.4,6.8 8.3,8.3 9,21.3 2.1,30.4 l 2.5,2.5 0.9,-0.9 17.3,17.3 c 1.7,1.7 1.7,4.5 0,6.2 -0.9,0.9 -2,1.3 -3.1,1.3 -1.1,0 -2.2,-0.4 -3.1,-1.3 L 73.8,72.7 74.7,71.8 72.2,69.3 C 68.1,72.4 63.1,74 58.2,74 Z M 46.1,62.9 c 3.3,3.3 7.7,5 12.1,5 4.4,0 8.8,-1.7 12.1,-5 6.7,-6.7 6.7,-17.5 0,-24.2 -3.3,-3.3 -7.7,-5 -12.1,-5 -4.4,0 -8.8,1.7 -12.1,5 -6.7,6.7 -6.7,17.6 0,24.2 z"
       id="path2"
       sodipodi:nodetypes="ssssssssssssccsssscsscssccssssccsscscssscscscsssssccssscscsssssccssssssscccsssccccscsssssc" /></g><g
     inkscape:groupmode="layer"
     id="layer1"
     inkscape:label="face"
     style="display:none"><path
       d="m 37.521906,89.660283 c 0,-1.4 1.1,-2.5 2.5,-2.5 h 34.1 c 1.4,0 2.5,1.1 2.5,2.5 0,1.4 -1.1,2.5 -2.5,2.5 h -34.1 c -1.3,0 -2.5,-1.1 -2.5,-2.5 z m -10.5,-50.7 v 53 c 0,5.9 4.7,10.599997 10.6,10.599997 h 47 c 5.9,0 10.6,-4.699997 10.6,-10.599997 v -5.7 c -1.6,0.7 -3.3,1.3 -5,1.7 v 4 c 0,3.1 -2.5,5.6 -5.6,5.6 h -47 c -3.1,0 -5.6,-2.5 -5.6,-5.6 v -51.5 h 8.9 c 5.8,0 10.6,-4.8 10.6,-10.6 v -8.1 h 33.1 c 3.1,0 5.6,2.5 5.6,5.6 v 5.7 c 1.7,0.4 3.4,1 5,1.7 v -7.4 c 0,-5.9 -4.7,-10.6 -10.6,-10.6 h -34.7 c -0.6,0 -1.2,0.1 -1.8,0.3 -0.6,0.2 -1.1,0.6 -1.5,1 l -18.2,17.5 c -0.5,0.4 -0.8,1 -1.1,1.6 -0.3,0.6 -0.3,1.2 -0.3,1.8 z m 35.4,3.2 c 0.5,-0.5 1,-1.1 1.5,-1.6 1.3,-1.3 2.7,-2.4 4.1,-3.4 h -9.1 c -1.4,0 -2.5,1.1 -2.5,2.5 0,1.4 1.1,2.5 2.5,2.5 z m -22.2,40 h 25.5 c -0.7,-0.5 -1.3,-1.1 -1.9,-1.7 -1,-1 -2,-2.1 -2.8,-3.3 h -20.8 c -1.4,0 -2.5,1.1 -2.5,2.5 0,1.4 1.2,2.5 2.5,2.5 z m -2.5,-12.5 c 0,1.4 1.1,2.5 2.5,2.5 h 17.9 c -0.7,-1.6 -1.3,-3.3 -1.7,-5 h -16.2 c -1.3,0 -2.5,1.1 -2.5,2.5 z m 2.5,-7.5 h 15.4 c 0,-0.6 -0.1,-1.1 -0.1,-1.7 0,-1.1 0.1,-2.2 0.2,-3.3 h -15.5 c -1.4,0 -2.5,1.1 -2.5,2.5 0,1.4 1.2,2.5 2.5,2.5 z m -2.5,-12.5 c 0,1.4 1.1,2.5 2.5,2.5 h 16.6 c 0.5,-1.7 1.2,-3.4 2.1,-5 h -18.7 c -1.3,0 -2.5,1.1 -2.5,2.5 z m 46.1,34 c -5.9,0 -11.9,-2.3 -16.4,-6.8 -9.1,-9.1 -9.1,-23.7 0,-32.8 4.5,-4.5 10.5,-6.8 16.4,-6.8 5.9,0 11.9,2.3 16.400004,6.8 8.3,8.3 9,21.3 2.1,30.4 l 2.5,2.5 0.9,-0.9 17.3,17.3 c 1.7,1.7 1.7,4.5 0,6.2 -0.9,0.899997 -2,1.299997 -3.1,1.299997 -1.1,0 -2.2,-0.4 -3.1,-1.299997 l -17.400004,-17.2 0.900004,-0.9 -2.500004,-2.5 c -4.1,3.1 -9.1,4.7 -14,4.7 z m -12.1,-11.1 c 3.3,3.3 7.7,5 12.1,5 4.4,0 8.8,-1.7 12.1,-5 6.700004,-6.7 6.700004,-17.5 0,-24.2 -3.3,-3.3 -7.7,-5 -12.1,-5 -4.4,0 -8.8,1.7 -12.1,5 -6.7,6.7 -6.7,17.6 0,24.2 z m 22.9,-4.7 c -0.2,-0.1 -0.5,-0.2 -0.8,-0.3 -3.1,-0.8 -5.7,-1.9 -5.7,-1.9 -0.3,-0.4 -0.5,-1.2 -0.5,-1.6 0.7,-0.9 1.1,-2.1 1.2,-3.1 0.3,0.2 0.8,0.1 1.3,-1.8 0.4,-1.6 0.2,-2.1 -0.2,-2.2 v 0 c 1.2,-6 -1.6,-6.2 -1.6,-6.2 0,0 -0.4,-0.8 -1.6,-1.5 -0.8,-0.5 -1.8,-0.8 -3.2,-0.7 -0.4,0 -0.9,0.1 -1.3,0.2 v 0 c -0.5,0.2 -1,0.4 -1.4,0.7 -0.5,0.3 -1,0.7 -1.4,1.2 -0.7,0.7 -1.3,1.6 -1.6,2.8 -0.3,1 -0.2,2 0.1,3.1 -0.5,0 -1.1,0.3 -0.5,2.3 0.4,1.5 0.8,1.9 1.1,1.9 0.2,1.1 0.5,2.3 1.3,3.4 -0.1,0.4 -0.2,1 -0.5,1.5 0,0 -2.7,1.3 -5.8,2.1 -0.3,0.1 -0.6,0.2 -0.8,0.3 2.3,3.5 6.3,5.8 10.9,5.8 4.7,-0.2 8.7,-2.5 11,-6 z"
       id="path2-8"
       style="display:inline" /></g><g
     inkscape:groupmode="layer"
     id="layer2"
     inkscape:label="r"><path
       class="st2"
       d="m 65.827338,59.972772 h 2.740007 V 62.10117 H 64.383939 L 57.452381,51.71198 H 53.75826 v 8.260792 h 3.612566 v 2.128398 h -9.092579 v -2.128398 h 3.123282 V 41.665289 l -3.123282,-0.383275 v -2.014231 c 1.182443,0.269108 2.209949,0.456668 3.498402,0.456668 1.940838,0 3.92245,-0.456668 5.863288,-0.456668 3.767503,0 7.265905,1.712504 7.265905,5.895907 0,3.237448 -1.940838,5.292453 -4.949946,6.165015 z M 53.75826,49.656974 l 1.981612,0.04077 c 4.835782,0.07339 6.695074,-1.785896 6.695074,-4.26495 0,-2.894947 -2.095775,-4.036616 -4.754236,-4.036616 -1.255835,0 -2.552442,0.114166 -3.92245,0.269107 z"
       id="path902"
       style="fill:#000000;fill-opacity:1;stroke-width:0.0815477" /></g></svg>
