<svg height='300px' width='300px'  fill="#000000" xmlns="http://www.w3.org/2000/svg" xmlns:xlink="http://www.w3.org/1999/xlink" version="1.1" x="0px" y="0px" viewBox="0 0 50.4 50.4" enable-background="new 0 0 50.4 50.4" xml:space="preserve"><g><path d="M12.317,26.104c0-2.306,1.098-4.627,3.497-5.812c-0.061-0.001-9.281-0.007-9.281-0.007C2.26,20.285,0,23.164,0,26.104   v13.697h3.991V26.388h1.923l0.004,13.447h6.398V26.104z"></path><path d="M24.208,19.721l-6.225-6.225l6.225-6.225l6.224,6.225L24.208,19.721L24.208,19.721z M20.082,13.496l4.125,4.125   l4.125-4.125l-4.125-4.125L20.082,13.496L20.082,13.496z"></path><polygon points="31.905,9.71 38.169,19.085 44.432,9.71  "></polygon><path d="M20.31,19.804c-4.465,0-6.8,3.088-6.8,6.139v13.858h12.743V25.943c0-3.213,1.836-4.749,1.91-4.809l1.662-1.322   L20.31,19.804z M24.767,25.943v12.491l-5.134-0.011V26.164h-1.96V38.42l-2.68-0.004V25.943c0-2.243,1.664-4.655,5.315-4.655   l5.79,0.005C25.45,22.277,24.767,23.818,24.767,25.943z"></path></g><g><path d="M43.801,20.285h-9.966c-4.273,0-6.534,2.879-6.534,5.819v13.697h3.991V26.388h1.923l0.005,13.413h11.252L44.47,26.388   h1.871l0.003,13.416h3.989l-0.001-13.7C50.332,23.164,48.071,20.285,43.801,20.285z"></path><circle cx="10.963" cy="13.465" r="4.678"></circle></g></svg>