<?xml version="1.0" encoding="UTF-8" standalone="no"?>
<svg
   xmlns:dc="http://purl.org/dc/elements/1.1/"
   xmlns:cc="http://creativecommons.org/ns#"
   xmlns:rdf="http://www.w3.org/1999/02/22-rdf-syntax-ns#"
   xmlns:svg="http://www.w3.org/2000/svg"
   xmlns="http://www.w3.org/2000/svg"
   xmlns:sodipodi="http://sodipodi.sourceforge.net/DTD/sodipodi-0.dtd"
   xmlns:inkscape="http://www.inkscape.org/namespaces/inkscape"
   height="300px"
   width="300px"
   fill="#000000"
   data-name="Layer 1"
   viewBox="0 0 68 68"
   x="0px"
   y="0px"
   version="1.1"
   id="svg18"
   sodipodi:docname="plants.svg"
   inkscape:export-filename="C:\Users\jacek\OneDrive\Documents\resume\inst\rmarkdown\templates\curriculum_vitae\skeleton\images\plants.png"
   inkscape:export-xdpi="91.440002"
   inkscape:export-ydpi="91.440002"
   inkscape:version="1.0.2-2 (e86c870879, 2021-01-15)">
  <metadata
     id="metadata24">
    <rdf:RDF>
      <cc:Work
         rdf:about="">
        <dc:format>image/svg+xml</dc:format>
        <dc:type
           rdf:resource="http://purl.org/dc/dcmitype/StillImage" />
      </cc:Work>
    </rdf:RDF>
  </metadata>
  <defs
     id="defs22" />
  <sodipodi:namedview
     pagecolor="#ffffff"
     bordercolor="#666666"
     borderopacity="1"
     objecttolerance="10"
     gridtolerance="10"
     guidetolerance="10"
     inkscape:pageopacity="0"
     inkscape:pageshadow="2"
     inkscape:window-width="1920"
     inkscape:window-height="1057"
     id="namedview20"
     showgrid="false"
     inkscape:zoom="2.9666667"
     inkscape:cx="150"
     inkscape:cy="150"
     inkscape:window-x="-8"
     inkscape:window-y="-8"
     inkscape:window-maximized="1"
     inkscape:current-layer="svg18" />
  <title
     id="title2">Artboard 12@5x</title>
  <path
     d="M40.09,9a6.75,6.75,0,0,0-1.32,4.55c4.51-3.09,9.76-3.59,13.61-3.39a1,1,0,0,1,.94,1.05,1,1,0,0,1-1,.95c-3.7-.19-8.81.31-13,3.5a6.55,6.55,0,0,0,8.24,3.93,4.58,4.58,0,0,0,.58-.22l.2-.09C53.39,17,60.82,13,64.58,16.58,58.58,5.14,46.51.16,40.09,9Z"
     id="path4" />
  <path
     d="M37,24.17a5.42,5.42,0,0,0-2.79,2.28,17.94,17.94,0,0,1,10.64,3.79,1,1,0,0,1-.6,1.81,1,1,0,0,1-.59-.2,15.68,15.68,0,0,0-10.19-3.37,5.24,5.24,0,0,0,3.82,6.09,3.38,3.38,0,0,0,.48.11l.18,0c4.4.78,11.18,1.36,12.11,5.44C51.09,29.81,45.19,21.12,37,24.17Z"
     id="path6" />
  <path
     d="M15.74,35.09,16.2,35a5.06,5.06,0,0,0,3.43-6A15,15,0,0,0,10,32.65a1.07,1.07,0,0,1-.63.22,1,1,0,0,1-.63-1.78A17.34,17.34,0,0,1,18.79,27,5.2,5.2,0,0,0,16,25C8,22.36,2.71,31,4.16,40.87c.72-4,7.21-4.81,11.41-5.75Z"
     id="path8" />
  <path
     d="M15.72,16.67l.12.19c.12.17.24.34.37.5a6.55,6.55,0,0,0,9,1.13c-1.79-4.95-5.82-8.13-9-10a1,1,0,0,1-.37-1.36,1,1,0,0,1,1.36-.38C20.54,8.7,24.7,11.94,26.82,17a6.7,6.7,0,0,0,1.35-4.55C27.5,1.57,14.64-.74,3.42,5.67,8.53,4.66,12.61,12.07,15.72,16.67Z"
     id="path10" />
  <path
     d="M17,64.74a1.82,1.82,0,0,0,1.77,1.39H33.61a1.82,1.82,0,0,0,1.79-1.39l3.38-16.16H13.57Z"
     id="path12" />
  <rect
     x="11.72"
     y="39.82"
     width="28.9"
     height="6.75"
     rx="0.8"
     id="rect14" />
  <path
     d="M27.58,19.14a8.91,8.91,0,0,1-1.73,1.34c.57,2.37.92,4.14,1.22,5.71A18.7,18.7,0,0,0,26,27.86v0c-1.28-.25-2.76-.51-4.79-.79h0a7.05,7.05,0,0,1,.58,2.09c1.3.19,2.36.37,3.3.55a18.9,18.9,0,0,0-1.65,8.08h2a16.81,16.81,0,0,1,1.89-8.14c1.16-.27,2.46-.57,4.18-.9a7.53,7.53,0,0,1,.48-2.11h-.1c-1.18.22-2.18.42-3.06.61.68-.93,1.42-1.83,2.19-2.77s1.75-2.12,2.55-3.27c0,0,.06,0,.08-.06C34.66,20,35.92,18.69,37.7,17A9,9,0,0,1,37,14.93a4.48,4.48,0,0,0-.4.36l-.53.52A16.59,16.59,0,0,0,33.65,2.29,1,1,0,0,0,32,3.44a14.52,14.52,0,0,1,1,14.75,29.58,29.58,0,0,1-3.64,5.06c-.23.27-.45.55-.68.83-.25-1.26-.56-2.68-1-4.42C27.68,19.48,27.63,19.31,27.58,19.14Z"
     id="path16" />
</svg>
