<?xml version="1.0" encoding="UTF-8" standalone="no"?>
<svg
   xmlns:dc="http://purl.org/dc/elements/1.1/"
   xmlns:cc="http://creativecommons.org/ns#"
   xmlns:rdf="http://www.w3.org/1999/02/22-rdf-syntax-ns#"
   xmlns:svg="http://www.w3.org/2000/svg"
   xmlns="http://www.w3.org/2000/svg"
   xmlns:sodipodi="http://sodipodi.sourceforge.net/DTD/sodipodi-0.dtd"
   xmlns:inkscape="http://www.inkscape.org/namespaces/inkscape"
   height="300px"
   width="300px"
   fill="#000000"
   version="1.1"
   x="0px"
   y="0px"
   viewBox="0 0 50 50"
   enable-background="new 0 0 50 50"
   xml:space="preserve"
   id="svg30"
   sodipodi:docname="knitting.svg"
   inkscape:version="1.0.2-2 (e86c870879, 2021-01-15)"><metadata
     id="metadata36"><rdf:RDF><cc:Work
         rdf:about=""><dc:format>image/svg+xml</dc:format><dc:type
           rdf:resource="http://purl.org/dc/dcmitype/StillImage" /></cc:Work></rdf:RDF></metadata><defs
     id="defs34" /><sodipodi:namedview
     pagecolor="#ffffff"
     bordercolor="#666666"
     borderopacity="1"
     objecttolerance="10"
     gridtolerance="10"
     guidetolerance="10"
     inkscape:pageopacity="0"
     inkscape:pageshadow="2"
     inkscape:window-width="1920"
     inkscape:window-height="1057"
     id="namedview32"
     showgrid="false"
     inkscape:zoom="1.3808888"
     inkscape:cx="150.07216"
     inkscape:cy="165.42845"
     inkscape:window-x="-8"
     inkscape:window-y="-8"
     inkscape:window-maximized="1"
     inkscape:current-layer="svg30" /><g
     id="g28"
     transform="matrix(1,0,0,-1,0,50)"><path
       d="m 29.8,19.3 c -0.7,-0.7 -1.4,-1.4 -2.1,-2.1 -1.4,1.6 -5.8,6.6 -11.6,10.6 0.8,0.6 1.6,1.1 2.5,1.5 5.9,-4.1 10.2,-8.9 11.2,-10 z"
       id="path2" /><path
       d="m 32.9,22 c -0.8,-0.7 -1.6,-1.3 -2.4,-2.1 -1,1.2 -5.1,5.7 -10.7,9.8 1.1,0.4 2.3,0.7 3.5,0.8 4.6,-3.4 8.2,-7.1 9.6,-8.5 z"
       id="path4" /><path
       d="m 12.7,24.2 c 0.7,1.1 1.6,2 2.6,2.9 C 21.3,23 25.8,17.9 27,16.4 26.1,15.3 25.2,14.2 24.5,13 21.3,17.2 17.2,21.6 12.7,24.2 Z"
       id="path6" /><path
       d="m 11.1,21 c 0.3,0.8 0.7,1.6 1.1,2.4 C 21.4,18 29,4.7 30.4,2 29.4,1.6 28.4,1.3 27.3,1.2 25.9,4 19.9,15.3 11.1,21 Z"
       id="path8" /><path
       d="m 39.8,16.6 c 0,-0.2 0,-0.5 0,-0.7 0,-5.9 -3.5,-11 -8.5,-13.4 -0.3,0.6 -1,1.8 -1.9,3.3 2.7,4.4 6.7,8.1 10.4,10.8 z"
       id="path10" /><path
       d="m 36.7,25 c -1,-0.7 -2,-1.5 -3.1,-2.3 -1.2,1.3 -4.5,4.6 -8.8,8 0.1,0 0.1,0 0.2,0 4.8,0 9,-2.2 11.7,-5.7 z"
       id="path12" /><path
       d="M 21.7,1.4 C 15.1,2.9 10,8.8 10.2,16.1 16,11.4 20,4.7 21.7,1.4 Z"
       id="path14" /><path
       d="m 10.2,17.3 c 0.1,0.9 0.3,1.8 0.5,2.7 C 18.8,14.6 24.6,4.1 26.2,1 25.2,1 24.4,1 23,1.2 21.3,4.3 16.9,12.1 10.2,17.3 Z"
       id="path16" /><path
       d="m 25.2,12 c 2.9,4.7 7.8,8.9 12.1,12.1 0.5,-0.8 1,-1.6 1.3,-2.5 -4.2,-2.9 -8.9,-6.9 -11.9,-11.7 -0.4,0.6 -0.9,1.4 -1.5,2.1 z"
       id="path18" /><path
       d="m 39.1,20.6 c 0.3,-0.9 0.5,-1.9 0.6,-2.8 -3.8,-2.7 -8,-6.4 -10.9,-11 -0.4,0.7 -0.9,1.4 -1.4,2.2 2.8,4.6 7.5,8.6 11.7,11.6 z"
       id="path20" /><polygon
       points="1,49 7.9,48.2 22.3,42.5 17.3,40.5 6.5,44.8 "
       id="polygon22" /><path
       d="m 27.7,36.3 5,2 8,-3.2 c 1.3,1.3 3.4,1.8 5.2,1.1 2.5,-1 3.7,-3.8 2.7,-6.3 -1,-2.5 -3.8,-3.7 -6.3,-2.7 -1.9,0.7 -3,2.5 -3,4.4 z"
       id="path24" /><path
       d="m 10.6,31.7 c 0,-1.9 -1.2,-3.7 -3,-4.4 -2.5,-1 -5.3,0.2 -6.3,2.7 -1,2.5 0.2,5.3 2.7,6.3 1.9,0.8 3.9,0.3 5.2,-1.1 15.2,6.1 -9.6,-3.8 32.8,13.1 L 49,49 43.5,44.8 C 7.9,30.5 25.1,37.4 10.6,31.7 Z"
       id="path26" /></g></svg>
